<?xml version="1.0" encoding="UTF-8" standalone="no"?>
<!-- Generator: Adobe Illustrator 28.3.0, SVG Export Plug-In . SVG Version: 6.00 Build 0)  -->

<svg
   version="1.1"
   id="Router_Medium_x5F_White_00000062189486027058041470000012691761407447023025_"
   x="0px"
   y="0px"
   viewBox="0 0 544.54041 544.54041"
   xml:space="preserve"
   sodipodi:docname="immich.svg"
   width="544.54041"
   height="544.54041"
   inkscape:version="1.4.3 (1:1.4.3+202512261034+0d15f75042)"
   xmlns:inkscape="http://www.inkscape.org/namespaces/inkscape"
   xmlns:sodipodi="http://sodipodi.sourceforge.net/DTD/sodipodi-0.dtd"
   xmlns="http://www.w3.org/2000/svg"
   xmlns:svg="http://www.w3.org/2000/svg"><defs
   id="defs11" /><sodipodi:namedview
   id="namedview11"
   pagecolor="#ffffff"
   bordercolor="#000000"
   borderopacity="0.25"
   inkscape:showpageshadow="2"
   inkscape:pageopacity="0.0"
   inkscape:pagecheckerboard="0"
   inkscape:deskcolor="#d1d1d1"
   inkscape:zoom="0.35984848"
   inkscape:cx="320.96842"
   inkscape:cy="259.83158"
   inkscape:window-width="952"
   inkscape:window-height="1036"
   inkscape:window-x="960"
   inkscape:window-y="0"
   inkscape:window-maximized="1"
   inkscape:current-layer="Router_Medium_x5F_White_00000062189486027058041470000012691761407447023025_" />
<style
   type="text/css"
   id="style1">
	.st0{fill:#4251B0;}
	.st1{fill:#FA2921;}
	.st2{fill:#ED79B5;}
	.st3{fill:#FFB400;}
	.st4{fill:#1E83F7;}
	.st5{fill:#18C249;}
</style>

<g
   id="g11"
   transform="translate(-119.0498,-29.095884)">
	<path
   class="st1"
   d="m 376.76,216.42 c 28.32,25.07 51.15,51.95 65.83,77.27 25.23,-45.12 42.08,-98.73 42.3,-132.88 0,-0.24 0,-0.46 0,-0.66 0,-50.53 -50.41,-70.2 -93.82,-70.2 -43.41,0 -93.82,19.66 -93.82,70.2 0,0.69 0,1.62 0,2.73 24.19,10.74 52.89,29.96 79.51,53.54 z"
   id="path7" />
	<path
   class="st2"
   d="m 222.27,354.21 c 17.7,-19.69 44.85,-41.04 75.5,-59.08 32.6,-19.19 65.21,-32.59 93.83,-38.73 -35.11,-37.94 -80.89,-70.53 -113.31,-81.29 -0.23,-0.07 -0.44,-0.14 -0.63,-0.21 -48.06,-15.61 -82.34,26.25 -95.75,67.54 -13.42,41.29 -10.29,95.31 37.77,110.92 0.65,0.22 1.53,0.5 2.59,0.85 z"
   id="path8" />
	<path
   class="st3"
   d="m 600.73,241.74 c -13.42,-41.29 -47.69,-83.15 -95.75,-67.54 -0.66,0.21 -1.54,0.5 -2.6,0.84 -2.75,26.34 -12.16,59.57 -26.36,92.17 -15.09,34.68 -33.6,64.69 -53.14,86.48 50.7,10.05 106.9,9.52 139.45,-0.83 0.23,-0.07 0.44,-0.14 0.63,-0.21 48.06,-15.6 51.19,-69.62 37.77,-110.91 z"
   id="path9" />
	<path
   class="st4"
   d="m 348.22,394.58 c -8.17,-36.93 -10.84,-72.09 -7.84,-101.2 -46.93,21.67 -92.08,55.14 -112.33,82.64 -0.14,0.19 -0.27,0.37 -0.39,0.54 -29.7,40.88 -0.48,86.42 34.64,111.94 35.12,25.52 87.46,39.24 117.16,-1.64 0.41,-0.56 0.95,-1.31 1.6,-2.21 -13.25,-22.93 -25.16,-55.35 -32.84,-90.07 z"
   id="path10" />
	<path
   class="st5"
   d="m 554.19,373.91 c -25.9,5.53 -60.41,6.84 -95.81,3.42 -37.65,-3.64 -71.91,-11.96 -98.67,-23.82 6.11,51.33 23.99,104.61 43.89,132.37 0.14,0.19 0.27,0.37 0.39,0.54 29.7,40.88 82.04,27.16 117.16,1.64 35.12,-25.52 64.35,-71.06 34.65,-111.94 -0.41,-0.56 -0.95,-1.31 -1.61,-2.21 z"
   id="path11" />
</g>
</svg>
